<?xml version="1.0" encoding="utf-8"?>
<svg xmlns="http://www.w3.org/2000/svg" viewBox="57.8024 41.3714 380.0207 417.256" width="380.021px" height="417.256px" xmlns:bx="https://boxy-svg.com" style='pointer-events: none;' fill='currentColor'>
  <!-- <g color='inherit'> -->
    <path fill='currentColor' style="" d="M 57.83016666666666 67.50699999999999 C 56.959333333333326 71.528 76.75166666666667 63.75300000000001 90.13116666666666 64.653 C 103.51066666666667 65.553 110.47733333333333 75.128 121.97316666666667 91.86566666666666 C 133.46900000000002 108.60333333333334 149.494 132.50366666666665 173.93183333333332 170.79166666666666 C 198.3696666666667 209.07966666666667 231.22033333333334 261.75533333333334 263.2456666666667 310.1225 C 295.271 358.48966666666666 326.471 402.54833333333335 356.15883333333335 429.44866666666667 C 385.84666666666664 456.349 414.02233333333334 466.09100000000007 427.0798333333333 452.58250000000004 C 440.13733333333334 439.074 438.07666666666665 402.315 437.0463333333334 383.9355 C 436.016 365.556 436.016 365.556 436.016 365.556 C 436.016 365.556 436.016 365.556 432.65333333333336 365.556 C 429.2906666666667 365.556 422.5653333333333 365.556 419.20266666666663 365.556 C 415.84 365.556 415.84 365.556 415.84 365.556 C 415.84 365.556 415.84 365.556 415.8828333333333 369.08933333333334 C 415.9256666666667 372.62266666666665 416.0113333333333 379.6893333333333 416.0541666666666 383.2226666666666 C 416.097 386.75600000000003 416.097 386.75600000000003 416.0969999999999 386.7559999999999 C 416.097 386.75600000000003 416.097 386.75600000000003 414.2761666666666 383.2226666666666 C 412.45533333333333 379.6893333333333 408.8136666666667 372.62266666666665 406.9928333333334 369.08933333333334 C 405.172 365.556 405.172 365.556 405.172 365.556 C 405.172 365.556 405.172 365.556 401.8011666666667 365.556 C 398.4303333333334 365.556 391.6886666666667 365.556 388.31783333333334 365.556 C 384.94699999999995 365.556 384.94699999999995 365.556 384.94700000000006 365.556 C 384.94699999999995 365.556 384.94699999999995 365.556 387.4636666666667 370.19083333333333 C 389.98033333333336 374.8256666666666 395.0136666666667 384.0953333333334 397.4845 392.8246666666667 C 399.95533333333333 401.55400000000003 399.86366666666663 409.743 393.16366666666664 414.2416666666666 C 386.4636666666667 418.74033333333335 373.1553333333333 419.54866666666675 326.8588333333333 358.1603333333333 C 280.5623333333333 296.772 201.27766666666665 173.187 158.26466666666667 108.43616666666667 C 115.25166666666667 43.685333333333325 108.51033333333334 37.76866666666667 94.37266666666666 42.71883333333333 C 80.235 47.669000000000004 58.701 63.486 57.83016666666666 67.50699999999999" bx:d="M 37.167 79.303 U 96.544 55.978 U 117.444 84.703 U 165.519 156.404 U 264.071 314.431 U 357.671 446.607 U 442.198 475.833 U 436.016 365.556 U 436.016 365.556 U 436.016 365.556 U 415.84 365.556 U 415.84 365.556 U 415.84 365.556 U 416.097 386.756 U 416.097 386.756 U 416.097 386.756 U 405.172 365.556 U 405.172 365.556 U 405.172 365.556 U 384.947 365.556 U 384.947 365.556 U 384.947 365.556 U 400.047 393.365 U 399.772 417.932 U 359.847 420.357 U 121.993 49.602 U 101.769 31.852 Z 1@06599776"/>
  <!-- </g> -->
</svg>